M48
; DRILL file {KiCad (6.0.9)} date Tue May 30 21:41:55 2023
; FORMAT={-:-/ absolute / metric / decimal}
; #@! TF.CreationDate,2023-05-30T21:41:55+01:00
; #@! TF.GenerationSoftware,Kicad,Pcbnew,(6.0.9)
; #@! TF.FileFunction,Plated,1,2,PTH
FMAT,2
METRIC
; #@! TA.AperFunction,Plated,PTH,ViaDrill
T1C0.400
; #@! TA.AperFunction,Plated,PTH,ComponentDrill
T2C1.000
; #@! TA.AperFunction,Plated,PTH,ComponentDrill
T3C1.100
; #@! TA.AperFunction,Plated,PTH,ComponentDrill
T4C1.200
; #@! TA.AperFunction,Plated,PTH,ComponentDrill
T5C1.400
%
G90
G05
T1
X66.75Y-53.0
X68.875Y-81.05
X87.7Y-129.125
X89.075Y-79.95
X89.075Y-85.6
X96.1Y-57.575
X98.3Y-122.1
X129.525Y-59.275
T2
X47.0Y-68.0
X47.0Y-70.54
X47.0Y-73.08
X47.0Y-75.62
X47.0Y-82.0
X47.0Y-84.54
X47.0Y-87.08
X47.0Y-89.62
X52.8Y-132.8
X55.34Y-132.8
X69.46Y-132.8
X72.0Y-132.8
X79.0Y-79.0
X79.0Y-81.54
X79.0Y-84.08
X79.0Y-86.62
X79.0Y-89.16
X79.0Y-91.7
X79.0Y-94.24
X79.0Y-96.78
X79.0Y-99.32
X79.0Y-101.86
X79.0Y-104.4
X79.0Y-106.94
X79.0Y-109.48
X79.0Y-112.02
X79.0Y-114.56
X94.24Y-79.0
X94.24Y-81.54
X94.24Y-84.08
X94.24Y-86.62
X94.24Y-89.16
X94.24Y-91.7
X94.24Y-94.24
X94.24Y-96.78
X94.24Y-99.32
X94.24Y-101.86
X94.24Y-104.4
X94.24Y-106.94
X94.24Y-109.48
X94.24Y-112.02
X94.24Y-114.56
X96.0Y-63.6
X96.1Y-46.0
X98.54Y-63.6
X98.64Y-46.0
X101.08Y-63.6
X101.18Y-46.0
X103.62Y-63.6
X103.72Y-46.0
X105.025Y-118.6
X105.025Y-121.14
X105.025Y-123.68
X105.025Y-126.22
X105.575Y-95.305
X105.575Y-97.845
X105.575Y-100.385
X105.575Y-102.925
X106.16Y-63.6
X106.26Y-46.0
X108.7Y-63.6
X108.8Y-46.0
X111.24Y-63.6
X111.34Y-46.0
X113.78Y-63.6
X113.88Y-46.0
X116.32Y-63.6
X116.42Y-46.0
X118.86Y-63.6
X118.96Y-46.0
X121.4Y-63.6
X121.5Y-46.0
X123.94Y-63.6
X124.04Y-46.0
X130.375Y-121.15
X130.375Y-123.69
X130.375Y-126.23
X130.375Y-128.77
X130.775Y-97.8
X130.775Y-100.34
X130.775Y-102.88
X130.775Y-105.42
X134.9Y-59.525
X134.9Y-62.065
X134.9Y-64.605
X134.9Y-67.145
X135.275Y-74.05
X135.275Y-76.59
X135.275Y-79.13
X135.275Y-81.67
X135.525Y-97.775
X135.525Y-100.315
X135.525Y-102.855
X135.525Y-105.395
X135.575Y-121.15
X135.575Y-123.69
X135.575Y-126.23
X135.575Y-128.77
T3
X56.32Y-105.2
X58.86Y-105.2
X61.4Y-105.2
T4
X46.96Y-97.2
X62.2Y-97.2
X72.405Y-48.675
X72.875Y-57.825
X87.645Y-48.675
X88.115Y-57.825
X97.755Y-84.275
X97.825Y-79.025
X112.995Y-84.275
X113.065Y-79.025
X116.23Y-79.35
X116.23Y-84.35
X131.47Y-79.35
X131.47Y-84.35
T5
X48.2Y-105.2
X48.2Y-115.36
T2
X53.258Y-55.0G85X53.258Y-57.0
G05
X58.957Y-53.0G85X56.957Y-53.0
G05
X58.957Y-59.0G85X56.957Y-59.0
G05
T0
M30
