%TF.GenerationSoftware,KiCad,Pcbnew,(6.0.9)*%
%TF.CreationDate,2023-05-30T21:41:48+01:00*%
%TF.ProjectId,UDSWB_MAINBOARD,55445357-425f-44d4-9149-4e424f415244,rev?*%
%TF.SameCoordinates,Original*%
%TF.FileFunction,Soldermask,Top*%
%TF.FilePolarity,Negative*%
%FSLAX46Y46*%
G04 Gerber Fmt 4.6, Leading zero omitted, Abs format (unit mm)*
G04 Created by KiCad (PCBNEW (6.0.9)) date 2023-05-30 21:41:48*
%MOMM*%
%LPD*%
G01*
G04 APERTURE LIST*
G04 Aperture macros list*
%AMRoundRect*
0 Rectangle with rounded corners*
0 $1 Rounding radius*
0 $2 $3 $4 $5 $6 $7 $8 $9 X,Y pos of 4 corners*
0 Add a 4 corners polygon primitive as box body*
4,1,4,$2,$3,$4,$5,$6,$7,$8,$9,$2,$3,0*
0 Add four circle primitives for the rounded corners*
1,1,$1+$1,$2,$3*
1,1,$1+$1,$4,$5*
1,1,$1+$1,$6,$7*
1,1,$1+$1,$8,$9*
0 Add four rect primitives between the rounded corners*
20,1,$1+$1,$2,$3,$4,$5,0*
20,1,$1+$1,$4,$5,$6,$7,0*
20,1,$1+$1,$6,$7,$8,$9,0*
20,1,$1+$1,$8,$9,$2,$3,0*%
G04 Aperture macros list end*
%ADD10R,1.700000X1.700000*%
%ADD11O,1.700000X1.700000*%
%ADD12C,2.400000*%
%ADD13O,2.400000X2.400000*%
%ADD14O,1.905000X2.000000*%
%ADD15R,1.905000X2.000000*%
%ADD16R,3.500000X3.500000*%
%ADD17RoundRect,0.750000X-1.000000X0.750000X-1.000000X-0.750000X1.000000X-0.750000X1.000000X0.750000X0*%
%ADD18RoundRect,0.875000X-0.875000X0.875000X-0.875000X-0.875000X0.875000X-0.875000X0.875000X0.875000X0*%
%ADD19C,3.700000*%
%ADD20R,2.800000X2.800000*%
%ADD21O,2.800000X2.800000*%
%ADD22R,1.600000X1.600000*%
%ADD23O,1.600000X1.600000*%
G04 APERTURE END LIST*
D10*
%TO.C,J5*%
X105575000Y-102925000D03*
D11*
X105575000Y-100385000D03*
X105575000Y-97845000D03*
X105575000Y-95305000D03*
%TD*%
D10*
%TO.C,Pump Switch*%
X52800000Y-132800000D03*
D11*
X55340000Y-132800000D03*
%TD*%
D12*
%TO.C,R7*%
X116230000Y-79350000D03*
D13*
X131470000Y-79350000D03*
%TD*%
D12*
%TO.C,R6*%
X116230000Y-84350000D03*
D13*
X131470000Y-84350000D03*
%TD*%
D12*
%TO.C,R5*%
X112995000Y-84275000D03*
D13*
X97755000Y-84275000D03*
%TD*%
D12*
%TO.C,R4*%
X97825000Y-79025000D03*
D13*
X113065000Y-79025000D03*
%TD*%
D12*
%TO.C,R3*%
X72875000Y-57825000D03*
D13*
X88115000Y-57825000D03*
%TD*%
D12*
%TO.C,R2*%
X87645000Y-48675000D03*
D13*
X72405000Y-48675000D03*
%TD*%
D12*
%TO.C,R1*%
X62200000Y-97200000D03*
D13*
X46960000Y-97200000D03*
%TD*%
D14*
%TO.C,Q1*%
X56320000Y-105200000D03*
X58860000Y-105200000D03*
D15*
X61400000Y-105200000D03*
%TD*%
D10*
%TO.C,J14*%
X96100000Y-46000000D03*
D11*
X98640000Y-46000000D03*
X101180000Y-46000000D03*
X103720000Y-46000000D03*
X106260000Y-46000000D03*
X108800000Y-46000000D03*
X111340000Y-46000000D03*
X113880000Y-46000000D03*
X116420000Y-46000000D03*
X118960000Y-46000000D03*
X121500000Y-46000000D03*
X124040000Y-46000000D03*
%TD*%
D10*
%TO.C,J13*%
X96000000Y-63600000D03*
D11*
X98540000Y-63600000D03*
X101080000Y-63600000D03*
X103620000Y-63600000D03*
X106160000Y-63600000D03*
X108700000Y-63600000D03*
X111240000Y-63600000D03*
X113780000Y-63600000D03*
X116320000Y-63600000D03*
X118860000Y-63600000D03*
X121400000Y-63600000D03*
X123940000Y-63600000D03*
%TD*%
D10*
%TO.C,J12*%
X135275000Y-74050000D03*
D11*
X135275000Y-76590000D03*
X135275000Y-79130000D03*
X135275000Y-81670000D03*
%TD*%
D10*
%TO.C,J11*%
X134900000Y-59525000D03*
D11*
X134900000Y-62065000D03*
X134900000Y-64605000D03*
X134900000Y-67145000D03*
%TD*%
D10*
%TO.C,PUMP*%
X72000000Y-132800000D03*
D11*
X69460000Y-132800000D03*
%TD*%
D10*
%TO.C,J9*%
X47000000Y-82000000D03*
D11*
X47000000Y-84540000D03*
X47000000Y-87080000D03*
X47000000Y-89620000D03*
%TD*%
D10*
%TO.C,J8*%
X47000000Y-68000000D03*
D11*
X47000000Y-70540000D03*
X47000000Y-73080000D03*
X47000000Y-75620000D03*
%TD*%
D16*
%TO.C,J7*%
X57957500Y-59000000D03*
D17*
X57957500Y-53000000D03*
D18*
X53257500Y-56000000D03*
%TD*%
D11*
%TO.C,J6*%
X105025000Y-118600000D03*
X105025000Y-121140000D03*
X105025000Y-123680000D03*
D10*
X105025000Y-126220000D03*
%TD*%
%TO.C,J4*%
X130375000Y-121150000D03*
D11*
X130375000Y-123690000D03*
X130375000Y-126230000D03*
X130375000Y-128770000D03*
%TD*%
D10*
%TO.C,J3*%
X130775000Y-97800000D03*
D11*
X130775000Y-100340000D03*
X130775000Y-102880000D03*
X130775000Y-105420000D03*
%TD*%
D10*
%TO.C,J2*%
X135575000Y-121150000D03*
D11*
X135575000Y-123690000D03*
X135575000Y-126230000D03*
X135575000Y-128770000D03*
%TD*%
D10*
%TO.C,J1*%
X135525000Y-97775000D03*
D11*
X135525000Y-100315000D03*
X135525000Y-102855000D03*
X135525000Y-105395000D03*
%TD*%
D19*
%TO.C,H4*%
X136000000Y-44000000D03*
%TD*%
%TO.C,H3*%
X136000000Y-136000000D03*
%TD*%
%TO.C,H2*%
X44000000Y-44000000D03*
%TD*%
%TO.C,H1*%
X44000000Y-136000000D03*
%TD*%
D20*
%TO.C,D1*%
X48200000Y-105200000D03*
D21*
X48200000Y-115360000D03*
%TD*%
D22*
%TO.C,A1*%
X79000000Y-79000000D03*
D23*
X79000000Y-81540000D03*
X79000000Y-84080000D03*
X79000000Y-86620000D03*
X79000000Y-89160000D03*
X79000000Y-91700000D03*
X79000000Y-94240000D03*
X79000000Y-96780000D03*
X79000000Y-99320000D03*
X79000000Y-101860000D03*
X79000000Y-104400000D03*
X79000000Y-106940000D03*
X79000000Y-109480000D03*
X79000000Y-112020000D03*
X79000000Y-114560000D03*
X94240000Y-114560000D03*
X94240000Y-112020000D03*
X94240000Y-109480000D03*
X94240000Y-106940000D03*
X94240000Y-104400000D03*
X94240000Y-101860000D03*
X94240000Y-99320000D03*
X94240000Y-96780000D03*
X94240000Y-94240000D03*
X94240000Y-91700000D03*
X94240000Y-89160000D03*
X94240000Y-86620000D03*
X94240000Y-84080000D03*
X94240000Y-81540000D03*
X94240000Y-79000000D03*
%TD*%
M02*
